<svg xmlns="http://www.w3.org/2000/svg" viewBox="0 0 512 512" fill="none">
  <defs>
    <linearGradient id="bg" x1="0" y1="0" x2="512" y2="512">
      <stop offset="0%" stop-color="#6C3CE0"/>
      <stop offset="100%" stop-color="#9B59FF"/>
    </linearGradient>
    <linearGradient id="shine" x1="0" y1="0" x2="1" y2="1">
      <stop offset="0%" stop-color="rgba(255,255,255,0.2)"/>
      <stop offset="100%" stop-color="rgba(255,255,255,0)"/>
    </linearGradient>
  </defs>
  <rect width="512" height="512" rx="112" fill="url(#bg)"/>
  <rect width="512" height="256" rx="0" fill="url(#shine)" opacity="0.3"/>
  <circle cx="256" cy="220" r="90" fill="none" stroke="white" stroke-width="6" opacity="0.3"/>
  <path d="M256 120 C256 120 220 190 220 220 C220 240 236 256 256 256 C276 256 292 240 292 220 C292 190 256 120 256 120Z" fill="white" opacity="0.95"/>
  <circle cx="256" cy="206" r="18" fill="rgba(255,255,255,0.4)"/>
  <rect x="180" y="310" width="152" height="8" rx="4" fill="white" opacity="0.4"/>
  <rect x="200" y="330" width="112" height="8" rx="4" fill="white" opacity="0.25"/>
  <rect x="215" y="350" width="82" height="8" rx="4" fill="white" opacity="0.15"/>
</svg>
